<svg width="30" height="30" viewBox="0 0 30 30" fill="none" xmlns="http://www.w3.org/2000/svg">
<path d="M15 0C6.71572 0 0 6.71572 0 15C0 23.2843 6.71572 30 15 30C23.2843 30 30 23.2843 30 15C30 6.71572 23.2843 0 15 0ZM20.0465 4.6856C20.4863 4.68907 20.9132 4.85127 21.2357 5.17383L23.732 7.66908C24.422 8.3591 24.3747 9.52168 23.6284 10.2698C22.8803 11.0179 21.7158 11.0624 21.0277 10.3743L18.5324 7.879C17.8424 7.19088 17.8907 6.02457 18.637 5.27833C19.0334 4.88085 19.5482 4.68167 20.0465 4.6856ZM15.9337 7.98252L20.9251 12.973L12.8135 21.0828L7.822 16.0914L15.9337 7.98252ZM6.5264 17.0365L11.7914 22.3015L5.20802 23.6199L6.5264 17.0365Z" fill="#18A0FB"/>
</svg>
