<svg width="443" height="120" viewBox="0 0 443 120" fill="none" xmlns="http://www.w3.org/2000/svg">
<path d="M109.718 3.43269C110.579 1.58966 112.837 0.884014 114.594 1.90893C116.139 2.81005 116.741 4.7404 115.984 6.36044L65.3133 114.728C64.5095 116.447 62.4621 117.186 60.7456 116.376C59.0374 115.571 58.3022 113.536 59.1012 111.825L109.718 3.43269Z" fill="#222F44"/>
<path d="M52.5621 3.41266C53.3925 1.65121 55.5573 0.984749 57.2346 1.97417C58.7018 2.83964 59.2718 4.67786 58.5517 6.22158L7.94258 114.709C7.11126 116.491 4.98981 117.258 3.21114 116.419C1.43756 115.583 0.677606 113.468 1.51375 111.694L52.5621 3.41266Z" fill="#222F44"/>
<path d="M45.9484 79.9814C46.7247 78.3348 48.6888 77.6293 50.3354 78.4056C51.9821 79.1819 52.6876 81.146 51.9113 82.7926L44.7985 97.88C44.0222 99.5266 42.0581 100.232 40.4115 99.4558C38.7649 98.6796 38.0593 96.7154 38.8356 95.0688L45.9484 79.9814Z" fill="#222F44"/>
<path d="M60.3942 49.179C61.1678 47.5381 63.1251 46.835 64.766 47.6086C66.4068 48.3822 67.1099 50.3395 66.3363 51.9803L60.0878 65.2345C59.3142 66.8754 57.3569 67.5784 55.7161 66.8049C54.0752 66.0313 53.3721 64.074 54.1457 62.4332L60.3942 49.179Z" fill="#222F44"/>
<path d="M74.7561 18.5111C75.5229 16.8845 77.4631 16.1876 79.0897 16.9544C80.7163 17.7212 81.4132 19.6615 80.6464 21.2881L74.0569 35.2654C73.2901 36.892 71.3498 37.5889 69.7233 36.8221C68.0967 36.0553 67.3997 34.115 68.1666 32.4884L74.7561 18.5111Z" fill="#222F44"/>
<path d="M127.391 78.5781C127.391 74.151 128.276 69.6068 130.047 64.9453C131.844 60.2839 134.201 56.4297 137.117 53.3828C140.034 50.3099 143.224 48.1094 146.688 46.7812C150.151 45.4271 153.862 44.75 157.82 44.75C161.805 44.75 165.268 45.4271 168.211 46.7812C171.154 48.1354 172.625 49.6849 172.625 51.4297C172.625 52.7839 172.182 54.0208 171.297 55.1406C170.411 56.2604 169.396 56.8203 168.25 56.8203C167.104 56.8203 164.995 56.1953 161.922 54.9453C158.875 53.6693 156.844 53.0312 155.828 53.0312C153.224 53.0312 150.776 53.6823 148.484 54.9844C144.083 57.5104 140.919 62.0677 138.992 68.6562C138.055 71.8073 137.586 75.4531 137.586 79.5938C137.586 83.7083 138.68 87.0156 140.867 89.5156C143.055 92.0156 145.984 93.2656 149.656 93.2656C151.531 93.2656 153.719 92.7318 156.219 91.6641C158.719 90.5703 160.997 90.0234 163.055 90.0234C164.982 90.0234 165.945 91.1693 165.945 93.4609C165.945 95.4141 163.966 97.276 160.008 99.0469C156.076 100.818 152.208 101.703 148.406 101.703C141.688 101.703 136.505 99.8281 132.859 96.0781C129.214 92.3021 127.391 86.4688 127.391 78.5781Z" fill="#222F44"/>
<path d="M196.312 61.4297H197.211C200.18 61.4297 202.836 61.8594 205.18 62.7188C207.549 63.5781 208.734 64.4766 208.734 65.4141C208.734 67.0026 208.357 68.1745 207.602 68.9297C206.872 69.6589 206.13 70.0234 205.375 70.0234C204.62 70.0234 203.057 69.6849 200.688 69.0078C198.318 68.3307 196.951 67.9922 196.586 67.9922C194.685 67.9922 193.109 68.3568 191.859 69.0859C190.635 69.7891 190.023 70.8047 190.023 72.1328C190.023 73.4609 190.74 74.6198 192.172 75.6094C192.38 75.7656 194.073 76.5469 197.25 77.9531C200.375 79.3594 202.667 80.8177 204.125 82.3281C205.583 83.8385 206.312 85.7656 206.312 88.1094C206.312 92.276 204.763 95.5573 201.664 97.9531C198.565 100.349 194.737 101.547 190.18 101.547C187.055 101.547 184.047 101.039 181.156 100.023C178.266 99.0078 176.82 97.9922 176.82 96.9766C176.82 95.5182 177.276 94.3203 178.188 93.3828C179.099 92.4453 179.971 91.9766 180.805 91.9766C181.664 91.9766 183.135 92.4453 185.219 93.3828C187.302 94.3203 189.281 94.7891 191.156 94.7891C193.031 94.7891 194.62 94.3073 195.922 93.3438C197.25 92.3802 197.914 91.1953 197.914 89.7891C197.914 88.3828 197.38 87.3021 196.312 86.5469C195.245 85.7656 193.24 84.8281 190.297 83.7344C187.354 82.6146 185.141 81.3255 183.656 79.8672C182.198 78.3828 181.469 76.3646 181.469 73.8125C181.469 70.349 182.914 67.4193 185.805 65.0234C188.695 62.6276 192.198 61.4297 196.312 61.4297ZM228.945 77.1719V77.7188C228.945 78.2396 229.232 78.5 229.805 78.5H231.719L231.914 78.4609L233.047 78.3828L233.242 78.3438L234.609 78.2266C236.328 77.9401 237.435 77.7969 237.93 77.7969C239.753 77.7969 241.536 77.2109 243.281 76.0391C244.219 75.4141 244.688 74.4115 244.688 73.0312V72.4062C244.688 71.2344 244.232 70.2057 243.32 69.3203C242.435 68.4089 241.367 67.9531 240.117 67.9531H238.477C238.164 68.0052 237.943 68.0312 237.812 68.0312C235.833 68.0312 233.854 69.1641 231.875 71.4297C229.922 73.6693 228.945 75.5833 228.945 77.1719ZM234.648 101.43H232.891C226.016 101.43 221.51 98.7083 219.375 93.2656C218.542 91.1562 218.125 89.0339 218.125 86.8984V86.0391C218.125 82.8099 218.724 79.5417 219.922 76.2344C222.318 69.5677 226.341 65.0495 231.992 62.6797C234.518 61.612 237.214 61.0781 240.078 61.0781H240.977C244.701 61.0781 247.643 62.1198 249.805 64.2031C251.966 66.2865 253.047 68.9948 253.047 72.3281V73.1875C253.047 76.7292 251.94 79.2812 249.727 80.8438C248.034 82.0417 244.805 82.9922 240.039 83.6953C238.503 83.9297 237.695 84.0469 237.617 84.0469L236.797 84.125C232.552 84.5938 230.208 84.9193 229.766 85.1016C228.568 85.5964 227.969 86.8984 227.969 89.0078C227.969 90.362 228.659 91.5208 230.039 92.4844C231.419 93.4479 233.073 93.9297 235 93.9297C236.953 93.9297 238.984 93.5391 241.094 92.7578C243.229 91.9766 244.831 91.5859 245.898 91.5859C247.383 91.5859 248.125 92.6667 248.125 94.8281C248.125 96.2604 246.992 97.5365 244.727 98.6562C241.029 100.505 237.669 101.43 234.648 101.43ZM265.797 101H263.062C261.839 101 261.227 100.518 261.227 99.5547V98.9688C261.227 98.3438 261.63 96.1693 262.438 92.4453C263.271 88.6953 263.701 86.7292 263.727 86.5469L263.961 85.2188L264.234 83.8906C264.391 83.0052 264.547 82.1068 264.703 81.1953L265.172 78.5391C265.745 75.362 266.148 72.4323 266.383 69.75C266.643 67.0417 266.956 65.0365 267.32 63.7344C267.685 62.4062 268.883 61.7422 270.914 61.7422C272.971 61.7422 274.456 62.1719 275.367 63.0312C275.732 63.3698 276.031 64.125 276.266 65.2969C276.5 66.4688 276.669 67.0547 276.773 67.0547C276.904 67.0547 277.438 66.599 278.375 65.6875C281.188 62.9792 283.987 61.625 286.773 61.625H287.398C289.872 61.625 291.109 62.3672 291.109 63.8516C291.109 64.9714 290.471 66.4297 289.195 68.2266C288.57 69.112 287.789 69.5547 286.852 69.5547C286.826 69.5547 286.799 69.5547 286.773 69.5547C285.81 69.5286 284.872 69.5156 283.961 69.5156C283.049 69.5156 281.773 69.9583 280.133 70.8438C278.492 71.7031 277.242 72.849 276.383 74.2812C274.768 76.9375 273.609 81.0911 272.906 86.7422C272.229 92.3932 271.526 96.3646 270.797 98.6562C270.302 100.219 268.635 101 265.797 101ZM309.055 101.234C307.596 101.234 306.542 101.065 305.891 100.727C305.24 100.362 304.732 99.4896 304.367 98.1094C304.003 96.7292 302.961 90.6745 301.242 79.9453C299.549 69.2161 298.703 63.8385 298.703 63.8125V63.0703C298.703 62.1849 299.966 61.7422 302.492 61.7422H303.352C305.747 61.7422 307.245 62.6927 307.844 64.5938C308 65.1146 308.638 69.5807 309.758 77.9922C310.878 86.3776 311.568 90.5703 311.828 90.5703C311.958 90.5703 313.13 88.3438 315.344 83.8906C317.557 79.4375 319.081 76.3255 319.914 74.5547L323.195 67.4844C324.237 65.1406 324.81 63.9036 324.914 63.7734C325.852 62.4453 328.013 61.7812 331.398 61.7812C333.117 61.7812 333.977 62.0156 333.977 62.4844C333.977 63.1875 332.492 66.5078 329.523 72.4453C322.049 87.3932 317.206 96.3125 314.992 99.2031C313.951 100.557 311.971 101.234 309.055 101.234ZM358.602 48.3828C358.602 48.3828 358.562 48.9167 358.484 49.9844C358.484 51.2865 358.055 52.4323 357.195 53.4219C356.362 54.4115 355.307 54.9062 354.031 54.9062L353.367 55.0234H353.016L352.469 55.0625H352.312C349.708 55.0625 348.406 54.125 348.406 52.25V51.0391L348.445 50.8438V50.4922C348.497 50.2318 348.523 50.0495 348.523 49.9453C348.523 48.2266 349.031 46.9245 350.047 46.0391C351.089 45.1536 352.417 44.7109 354.031 44.7109H355.086L356.062 44.8672C357.703 44.8672 358.523 45.5312 358.523 46.8594C358.576 47.1198 358.602 47.2891 358.602 47.3672L358.641 48.0312V48.1875L358.602 48.3828ZM340.203 98.2656V97.3281C340.203 95.5833 340.568 93.4349 341.297 90.8828C342.052 88.3307 342.911 84.4245 343.875 79.1641C344.865 73.8776 345.359 69.9323 345.359 67.3281C345.359 64.724 345.724 62.9792 346.453 62.0938C346.844 61.625 348.211 61.3906 350.555 61.3906H352.039C354.227 61.3906 355.32 61.7682 355.32 62.5234V63.8516C355.32 64.4245 354.747 67.8099 353.602 74.0078C352.456 80.2057 351.87 83.6823 351.844 84.4375C351.818 85.1927 351.805 85.7526 351.805 86.1172V87.2891L351.961 90.0234C351.961 91.7943 351.609 93.8125 350.906 96.0781C350.229 98.3177 349.747 99.5807 349.461 99.8672C348.862 100.466 346.831 100.766 343.367 100.766L342.391 100.805C341.453 100.805 340.854 100.727 340.594 100.57C340.333 100.388 340.203 99.6198 340.203 98.2656ZM365.844 86.9766V85.2969C365.844 82.3281 366.495 79.125 367.797 75.6875C370.323 69.151 374.555 64.776 380.492 62.5625C383.096 61.599 385.987 61.1172 389.164 61.1172H389.984C392.25 61.1172 394.333 61.7161 396.234 62.9141C398.161 64.112 399.125 65.2578 399.125 66.3516C399.125 67.4453 398.669 68.487 397.758 69.4766C396.846 70.4401 396.026 70.9219 395.297 70.9219C394.568 70.9219 393.279 70.5312 391.43 69.75C389.581 68.9427 387.966 68.5391 386.586 68.5391C383.669 68.5391 381.065 70.1797 378.773 73.4609C376.482 76.7161 375.336 80.8177 375.336 85.7656C375.336 88.2917 375.935 90.3229 377.133 91.8594C378.357 93.3698 380.102 94.125 382.367 94.125C383.695 94.125 385.297 93.7865 387.172 93.1094C389.047 92.4323 390.622 92.0938 391.898 92.0938C393.643 92.0938 394.516 92.9661 394.516 94.7109C394.516 96.4557 393.135 98.0443 390.375 99.4766C387.615 100.883 384.62 101.586 381.391 101.586H380.531C378.266 101.586 376.169 101.221 374.242 100.492C372.341 99.763 370.831 98.8255 369.711 97.6797C368.617 96.5078 367.693 94.9844 366.938 93.1094C366.208 91.2083 365.844 89.1641 365.844 86.9766ZM417.227 77.1719V77.7188C417.227 78.2396 417.513 78.5 418.086 78.5H420L420.195 78.4609L421.328 78.3828L421.523 78.3438L422.891 78.2266C424.609 77.9401 425.716 77.7969 426.211 77.7969C428.034 77.7969 429.818 77.2109 431.562 76.0391C432.5 75.4141 432.969 74.4115 432.969 73.0312V72.4062C432.969 71.2344 432.513 70.2057 431.602 69.3203C430.716 68.4089 429.648 67.9531 428.398 67.9531H426.758C426.445 68.0052 426.224 68.0312 426.094 68.0312C424.115 68.0312 422.135 69.1641 420.156 71.4297C418.203 73.6693 417.227 75.5833 417.227 77.1719ZM422.93 101.43H421.172C414.297 101.43 409.792 98.7083 407.656 93.2656C406.823 91.1562 406.406 89.0339 406.406 86.8984V86.0391C406.406 82.8099 407.005 79.5417 408.203 76.2344C410.599 69.5677 414.622 65.0495 420.273 62.6797C422.799 61.612 425.495 61.0781 428.359 61.0781H429.258C432.982 61.0781 435.924 62.1198 438.086 64.2031C440.247 66.2865 441.328 68.9948 441.328 72.3281V73.1875C441.328 76.7292 440.221 79.2812 438.008 80.8438C436.315 82.0417 433.086 82.9922 428.32 83.6953C426.784 83.9297 425.977 84.0469 425.898 84.0469L425.078 84.125C420.833 84.5938 418.49 84.9193 418.047 85.1016C416.849 85.5964 416.25 86.8984 416.25 89.0078C416.25 90.362 416.94 91.5208 418.32 92.4844C419.701 93.4479 421.354 93.9297 423.281 93.9297C425.234 93.9297 427.266 93.5391 429.375 92.7578C431.51 91.9766 433.112 91.5859 434.18 91.5859C435.664 91.5859 436.406 92.6667 436.406 94.8281C436.406 96.2604 435.273 97.5365 433.008 98.6562C429.31 100.505 425.951 101.43 422.93 101.43Z" fill="#0059A3"/>
</svg>
